HIERARCHY
ROOT Haolin_28_06:Solving:Hips
{
	OFFSET 0.000000 0.000000 0.000000
	CHANNELS 6 Xposition Yposition Zposition Xrotation Yrotation Zrotation
	JOINT Haolin_28_06:Solving:Spine
	{
		OFFSET 0.000000 -12.181966 2.015561
		CHANNELS 6 Xposition Yposition Zposition Xrotation Yrotation Zrotation
		JOINT Haolin_28_06:Solving:Spine1
		{
			OFFSET 0.000000 -8.890296 1.567602
			CHANNELS 6 Xposition Yposition Zposition Xrotation Yrotation Zrotation
			JOINT Haolin_28_06:Solving:Spine2
			{
				OFFSET 0.000000 -8.993092 0.786796
				CHANNELS 6 Xposition Yposition Zposition Xrotation Yrotation Zrotation
				JOINT Haolin_28_06:Solving:Spine3
				{
					OFFSET 0.000000 -9.027443 0.000000
					CHANNELS 6 Xposition Yposition Zposition Xrotation Yrotation Zrotation
					JOINT Haolin_28_06:Solving:Neck
					{
						OFFSET 0.000000 -11.606712 -1.160669
						CHANNELS 6 Xposition Yposition Zposition Xrotation Yrotation Zrotation
						JOINT Haolin_28_06:Solving:Neck1
						{
							OFFSET 0.000000 -7.471592 -0.653680
							CHANNELS 6 Xposition Yposition Zposition Xrotation Yrotation Zrotation
							JOINT Haolin_28_06:Solving:Head
							{
								OFFSET 0.000000 -7.386181 -1.302382
								CHANNELS 6 Xposition Yposition Zposition Xrotation Yrotation Zrotation
								JOINT Haolin_28_06:Solving:HeadEnd
								{
									OFFSET 0.000000 -9.728081 0.000002
									CHANNELS 6 Xposition Yposition Zposition Xrotation Yrotation Zrotation
									End Site
									{
										OFFSET 0.000000 -9.728081 0.000002
									}
								}
							}
						}
					}
					JOINT Haolin_28_06:Solving:RightShoulder
					{
						OFFSET 0.000000 -8.290508 -5.270916
						CHANNELS 6 Xposition Yposition Zposition Xrotation Yrotation Zrotation
						JOINT Haolin_28_06:Solving:RightArm
						{
							OFFSET -19.261074 -0.000008 0.000000
							CHANNELS 6 Xposition Yposition Zposition Xrotation Yrotation Zrotation
							JOINT Haolin_28_06:Solving:RightForeArm
							{
								OFFSET -30.691700 -0.000011 0.000000
								CHANNELS 6 Xposition Yposition Zposition Xrotation Yrotation Zrotation
								JOINT Haolin_28_06:Solving:RightHand
								{
									OFFSET -20.216934 -0.000008 0.000000
									CHANNELS 6 Xposition Yposition Zposition Xrotation Yrotation Zrotation
									JOINT Haolin_28_06:Solving:RightHandThumb1
									{
										OFFSET -4.948814 2.881329 -3.679893
										CHANNELS 6 Xposition Yposition Zposition Xrotation Yrotation Zrotation
										End Site
										{
											OFFSET -7.039886 -0.000004 -7.104978
										}
									}
									JOINT Haolin_28_06:Solving:RightHandMiddle1
									{
										OFFSET -13.196846 -0.000004 0.084595
										CHANNELS 6 Xposition Yposition Zposition Xrotation Yrotation Zrotation
										End Site
										{
											OFFSET -10.002037 -0.000004 0.000000
										}
									}
								}
							}
						}
					}
					JOINT Haolin_28_06:Solving:LeftShoulder
					{
						OFFSET 0.000000 -8.290508 -5.270916
						CHANNELS 6 Xposition Yposition Zposition Xrotation Yrotation Zrotation
						JOINT Haolin_28_06:Solving:LeftArm
						{
							OFFSET 19.261074 -0.000008 0.000000
							CHANNELS 6 Xposition Yposition Zposition Xrotation Yrotation Zrotation
							JOINT Haolin_28_06:Solving:LeftForeArm
							{
								OFFSET 30.691700 -0.000011 0.000000
								CHANNELS 6 Xposition Yposition Zposition Xrotation Yrotation Zrotation
								JOINT Haolin_28_06:Solving:LeftHand
								{
									OFFSET 20.216934 -0.000008 0.000000
									CHANNELS 6 Xposition Yposition Zposition Xrotation Yrotation Zrotation
									JOINT Haolin_28_06:Solving:LeftHandThumb1
									{
										OFFSET 4.948814 2.881329 -3.679893
										CHANNELS 6 Xposition Yposition Zposition Xrotation Yrotation Zrotation
										End Site
										{
											OFFSET 7.039886 -0.000004 -7.104978
										}
									}
									JOINT Haolin_28_06:Solving:LeftHandMiddle1
									{
										OFFSET 13.196846 -0.000004 0.084595
										CHANNELS 6 Xposition Yposition Zposition Xrotation Yrotation Zrotation
										End Site
										{
											OFFSET 10.002037 -0.000004 0.000000
										}
									}
								}
							}
						}
					}
				}
			}
		}
	}
	JOINT Haolin_28_06:Solving:RightUpLeg
	{
		OFFSET -10.083070 0.000000 0.000000
		CHANNELS 6 Xposition Yposition Zposition Xrotation Yrotation Zrotation
		JOINT Haolin_28_06:Solving:RightLeg
		{
			OFFSET 0.000000 47.042522 -0.000008
			CHANNELS 6 Xposition Yposition Zposition Xrotation Yrotation Zrotation
			JOINT Haolin_28_06:Solving:RightFoot
			{
				OFFSET 0.000000 38.766415 -0.000006
				CHANNELS 6 Xposition Yposition Zposition Xrotation Yrotation Zrotation
				JOINT Haolin_28_06:Solving:RightForeFoot
				{
					OFFSET 0.000000 3.531212 -0.000000
					CHANNELS 6 Xposition Yposition Zposition Xrotation Yrotation Zrotation
					JOINT Haolin_28_06:Solving:RightToeBase
					{
						OFFSET 0.000000 0.000000 -13.829352
						CHANNELS 6 Xposition Yposition Zposition Xrotation Yrotation Zrotation
						JOINT Haolin_28_06:Solving:RightToeBaseEnd
						{
							OFFSET 0.000000 0.000000 -4.034167
							CHANNELS 6 Xposition Yposition Zposition Xrotation Yrotation Zrotation
							End Site
							{
								OFFSET 0.000000 -4.034164 0.000004
							}
						}
					}
				}
			}
		}
	}
	JOINT Haolin_28_06:Solving:LeftUpLeg
	{
		OFFSET 10.083070 0.000000 0.000000
		CHANNELS 6 Xposition Yposition Zposition Xrotation Yrotation Zrotation
		JOINT Haolin_28_06:Solving:LeftLeg
		{
			OFFSET 0.000000 47.042522 -0.000008
			CHANNELS 6 Xposition Yposition Zposition Xrotation Yrotation Zrotation
			JOINT Haolin_28_06:Solving:LeftFoot
			{
				OFFSET 0.000000 38.766415 -0.000006
				CHANNELS 6 Xposition Yposition Zposition Xrotation Yrotation Zrotation
				JOINT Haolin_28_06:Solving:LeftForeFoot
				{
					OFFSET 0.000000 3.531212 -0.000000
					CHANNELS 6 Xposition Yposition Zposition Xrotation Yrotation Zrotation
					JOINT Haolin_28_06:Solving:LeftToeBase
					{
						OFFSET 0.000000 0.000000 -13.829352
						CHANNELS 6 Xposition Yposition Zposition Xrotation Yrotation Zrotation
						JOINT Haolin_28_06:Solving:LeftToeBaseEnd
						{
							OFFSET 0.000000 0.000000 -4.855067
							CHANNELS 6 Xposition Yposition Zposition Xrotation Yrotation Zrotation
							End Site
							{
								OFFSET 0.000000 -4.855064 0.000004
							}
						}
					}
				}
			}
		}
	}
}
MOTION
Frames: 4
Frame Time: 0.041667
27.709602 -172.613663 -79.426949 125.480957 -7.903594 3.633082 0.000003 -12.181971 2.015594 25.546144 -0.156548 -1.381595 -0.000002 -8.890295 1.567660 13.162290 -0.109282 -0.964746 -0.000006 -8.993116 0.786792 13.931279 -0.146616 2.874908 -0.000006 -9.027415 -0.000017 -3.087981 -0.480855 3.896943 0.000008 -11.606709 -1.160687 -12.663783 3.453215 1.673978 0.000003 -7.471606 -0.653678 -21.289676 6.978472 -1.409706 0.000004 -7.386197 -1.302399 -9.388876 0.860594 -1.551397 -0.000007 -9.728096 0.000004 -0.000006 -0.000000 0.000000 0.000007 -8.290527 -5.270932 -0.000006 15.881156 20.435629 -19.261066 -0.000006 0.000003 -93.210608 -45.480881 -97.251976 -30.691692 -0.000019 0.000001 -37.442192 -11.433883 -8.631315 -20.216932 -0.000014 -0.000008 4.143599 -17.431587 13.595122 -4.948801 2.881319 -3.679882 -0.000009 0.000005 -0.000002 -13.196838 -0.000019 0.084606 -0.000003 0.000007 0.000000 0.000007 -8.290524 -5.270932 -0.000002 -12.053363 -19.708053 19.261074 -0.000020 -0.000011 -104.883572 59.417223 100.632442 30.691700 -0.000021 0.000009 -39.723824 3.280396 2.722195 20.216953 -0.000006 0.000028 1.809132 11.839068 -8.752215 4.948792 2.881331 -3.679859 0.000002 -0.000003 0.000000 13.196837 -0.000002 0.084623 -0.000001 -0.000004 -0.000001 -10.083070 -0.000022 0.000008 -79.998666 8.237038 12.590969 0.000001 47.042534 0.000005 62.573146 -0.000002 -0.000003 -0.000000 38.766411 -0.000014 -10.495822 3.548818 4.680566 0.000000 3.531227 0.000021 0.000001 -0.000000 0.000000 -0.000007 0.000024 -13.829315 -6.146798 0.000001 -0.000001 -0.000002 0.000000 -4.034133 -0.000000 0.000001 -0.000000 10.083069 -0.000004 0.000026 -76.041445 -1.342658 -17.150993 0.000001 47.042503 0.000006 46.605130 -0.000000 -0.000006 -0.000013 38.766415 0.000018 0.579983 -8.651188 13.595151 -0.000014 3.531212 0.000031 -0.000000 0.000002 0.000000 -0.000005 0.000019 -13.829307 16.851680 0.000006 0.000001 -0.000017 0.000000 -4.855065 -0.000001 -0.000008 0.000004 
28.371975 -172.675812 -79.356789 125.630688 -7.733074 3.562495 -0.000004 -12.181973 2.015533 25.547206 -0.132871 -1.386173 0.000003 -8.890278 1.567597 13.147724 -0.114044 -0.968225 -0.000006 -8.993112 0.786793 13.861066 -0.143755 2.898957 -0.000006 -9.027436 -0.000007 -3.055485 -0.465320 3.876495 -0.000019 -11.606692 -1.160686 -12.645743 3.410265 1.727136 0.000001 -7.471611 -0.653669 -21.241893 6.923031 -1.332475 -0.000000 -7.386200 -1.302383 -9.321509 0.843236 -1.508794 0.000005 -9.728096 -0.000010 0.000001 -0.000000 0.000000 -0.000001 -8.290482 -5.270929 -0.000011 15.878055 20.432311 -19.261072 -0.000013 -0.000001 -93.248126 -45.973863 -97.234962 -30.691692 -0.000024 -0.000002 -37.953258 -11.105404 -8.543867 -20.216944 -0.000003 -0.000003 4.158235 -17.571678 13.539993 -4.948810 2.881332 -3.679873 0.000000 0.000003 -0.000003 -13.196855 -0.000018 0.084592 0.000012 -0.000003 -0.000001 -0.000006 -8.290497 -5.270930 -0.000002 -12.053033 -19.759824 19.261078 -0.000015 0.000003 -105.119432 59.186267 100.997242 30.691690 0.000002 -0.000016 -39.856753 3.236936 2.698908 20.216936 -0.000015 0.000014 1.815261 11.861021 -8.765645 4.948836 2.881328 -3.679907 0.000002 -0.000007 -0.000003 13.196861 -0.000010 0.084586 -0.000002 -0.000000 -0.000000 -10.083080 0.000003 -0.000041 -80.253200 8.008257 12.974808 -0.000001 47.042534 0.000020 62.577032 -0.000003 -0.000003 0.000001 38.766396 -0.000008 -10.362218 3.216945 4.382511 -0.000005 3.531227 0.000049 -0.000002 -0.000001 -0.000001 0.000005 0.000021 -13.829347 -6.255324 0.000000 0.000001 0.000000 0.000000 -4.034144 0.000000 0.000001 0.000000 10.083061 0.000014 -0.000067 -76.676236 -2.237240 -17.213786 0.000006 47.042526 -0.000002 47.428349 -0.000002 -0.000001 -0.000019 38.766422 0.000005 0.010461 -9.924840 14.441229 0.000029 3.531227 0.000012 -0.000000 -0.000002 0.000000 0.000008 -0.000009 -13.829315 11.631281 0.000001 0.000001 0.000032 -0.000000 -4.855071 -0.000000 -0.000003 -0.000000 
28.948389 -172.792892 -79.294083 125.952609 -7.603181 3.744252 0.000001 -12.181997 2.015527 25.433181 0.018213 -1.463835 -0.000001 -8.890280 1.567599 13.051478 -0.131237 -0.999606 -0.000001 -8.993103 0.786809 13.877711 -0.196719 2.841288 -0.000001 -9.027453 -0.000012 -3.079234 -0.519506 3.831423 -0.000008 -11.606726 -1.160666 -12.689353 3.408111 1.902296 -0.000005 -7.471608 -0.653674 -21.152780 6.803452 -1.396399 0.000006 -7.386202 -1.302397 -9.270122 0.830948 -1.507552 -0.000002 -9.728081 0.000009 -0.000007 -0.000000 0.000001 -0.000019 -8.290535 -5.270920 -0.000006 15.877815 20.556236 -19.261072 0.000012 0.000006 -93.418348 -45.999012 -97.303107 -30.691713 0.000001 -0.000004 -37.756493 -10.815627 -8.268754 -20.216942 -0.000025 -0.000015 4.082491 -17.494742 13.356052 -4.948788 2.881330 -3.679869 0.000002 -0.000000 0.000004 -13.196845 -0.000013 0.084603 0.000001 0.000002 0.000001 -0.000017 -8.290539 -5.270927 -0.000003 -12.099648 -19.794880 19.261086 -0.000019 -0.000012 -105.278821 59.056903 101.285463 30.691700 -0.000008 -0.000006 -40.087685 3.187858 2.679907 20.216955 -0.000002 -0.000003 1.820957 11.817615 -8.824084 4.948806 2.881324 -3.679865 0.000006 0.000005 0.000000 13.196837 -0.000023 0.084613 0.000002 -0.000005 -0.000001 -10.083071 -0.000024 -0.000035 -80.616245 7.949686 13.234359 0.000002 47.042526 -0.000007 62.482523 -0.000002 -0.000004 -0.000006 38.766418 0.000019 -10.209517 3.028772 4.163292 -0.000002 3.531204 -0.000021 -0.000001 -0.000001 -0.000001 -0.000003 0.000002 -13.829339 -6.242465 0.000001 0.000001 0.000003 0.000000 -4.034152 -0.000000 -0.000000 -0.000001 10.083075 -0.000010 -0.000024 -78.351730 -2.915611 -17.342559 -0.000006 47.042496 0.000014 50.007397 -0.000003 -0.000003 -0.000004 38.766411 -0.000004 -0.465993 -8.533456 14.264026 -0.000052 3.531212 0.000033 -0.000000 -0.000003 0.000000 0.000014 0.000017 -13.829347 -1.873096 -0.000002 0.000000 -0.000002 0.000000 -4.855070 0.000000 0.000003 0.000000 
29.509766 -172.878494 -79.211250 126.128145 -7.405197 3.851054 0.000004 -12.181940 2.015558 25.391793 0.151068 -1.485847 -0.000009 -8.890278 1.567613 13.115811 -0.152116 -0.954440 -0.000001 -8.993108 0.786800 13.811894 -0.301518 2.909016 -0.000000 -9.027417 0.000005 -3.085813 -0.521631 3.779437 -0.000024 -11.606695 -1.160666 -12.559612 3.356452 1.857641 -0.000000 -7.471605 -0.653688 -21.316841 6.826838 -1.467075 0.000001 -7.386172 -1.302388 -9.282457 0.831775 -1.519346 0.000001 -9.728096 -0.000000 0.000003 0.000000 -0.000000 -0.000019 -8.290531 -5.270915 -0.000014 15.782566 20.507414 -19.261072 -0.000019 0.000006 -93.375735 -46.241030 -97.181468 -30.691673 0.000004 -0.000002 -37.571955 -10.661136 -8.100206 -20.216913 -0.000013 -0.000000 4.048073 -17.397872 13.315966 -4.948809 2.881330 -3.679887 -0.000006 0.000005 -0.000002 -13.196856 -0.000004 0.084595 0.000006 0.000004 -0.000003 -0.000019 -8.290531 -5.270922 -0.000008 -12.108492 -19.922569 19.261070 0.000010 -0.000005 -105.529524 58.987938 101.572221 30.691694 -0.000051 -0.000009 -40.180753 3.057995 2.579470 20.216934 -0.000004 0.000009 1.815916 11.701608 -8.884632 4.948789 2.881323 -3.679855 -0.000004 0.000003 -0.000003 13.196828 -0.000008 0.084587 -0.000007 0.000005 -0.000003 -10.083066 0.000011 -0.000007 -80.791828 7.807039 13.379197 -0.000002 47.042522 0.000012 62.351889 -0.000001 -0.000004 -0.000000 38.766430 -0.000063 -10.080979 2.919020 3.989499 -0.000004 3.531204 0.000012 -0.000001 -0.000001 -0.000000 0.000004 0.000019 -13.829354 -6.164115 -0.000001 -0.000001 0.000006 -0.000007 -4.034153 -0.000000 0.000002 -0.000001 10.083075 0.000026 -0.000009 -79.651979 -3.226734 -17.538889 0.000003 47.042549 0.000003 51.994474 -0.000001 -0.000005 0.000003 38.766441 -0.000014 -0.389879 -6.127505 12.753906 -0.000008 3.531212 -0.000010 0.000000 -0.000003 0.000000 -0.000005 0.000014 -13.829370 -4.739358 -0.000004 -0.000000 0.000008 -0.000008 -4.855044 -0.000000 -0.000002 0.000000 
